<svg width="317" height="58" viewBox="0 0 317 58" fill="none" xmlns="http://www.w3.org/2000/svg">
<path d="M17.4029 16.6776C12.7873 16.6776 8.36086 18.5111 5.09719 21.7748C1.83351 25.0385 4.03503e-07 29.465 0 34.0805C-4.03502e-07 38.696 1.83351 43.1225 5.09718 46.3862C8.36086 49.6499 12.7873 51.4834 17.4029 51.4834V45.6836C14.3255 45.6836 11.3742 44.4612 9.19821 42.2852C7.0222 40.1091 5.79973 37.1578 5.79973 34.0805C5.79973 31.0031 7.0222 28.0518 9.19822 25.8758C11.3742 23.6998 14.3255 22.4773 17.4029 22.4773V16.6776Z" fill="white"/>
<path d="M51.0059 16.0894C50.487 11.5041 48.239 7.28925 44.72 4.30405C41.201 1.31885 36.6761 -0.211991 32.0675 0.0235741C27.459 0.259139 23.1137 2.24337 19.9174 5.57182C16.7212 8.90026 14.9146 13.3223 14.8659 17.9367L20.2973 17.994C20.3314 14.7622 21.5967 11.6652 23.8353 9.33401C26.0738 7.00287 29.1171 5.61317 32.3448 5.44819C35.5725 5.28321 38.7416 6.35536 41.2062 8.4461C43.6708 10.5368 45.2453 13.4888 45.6087 16.7002L51.0059 16.0894Z" fill="white"/>
<path d="M75.7393 25.1962C75.9798 21.5515 75.0038 17.9301 72.9644 14.8998C70.9251 11.8695 67.9377 9.6017 64.4707 8.45208C61.0037 7.30246 57.2532 7.33601 53.8073 8.54746C50.3614 9.75892 47.415 12.0798 45.4302 15.1461L49.6051 17.8485C50.9915 15.7066 53.0497 14.0854 55.4567 13.2392C57.8638 12.3929 60.4836 12.3695 62.9054 13.1725C65.3272 13.9756 67.414 15.5597 68.8386 17.6764C70.2631 19.7932 70.9449 22.3229 70.7769 24.8688L75.7393 25.1962Z" fill="white"/>
<path d="M71.1576 51.4687C74.6216 51.6313 78.014 50.4462 80.6232 48.162C83.2324 45.8777 84.8556 42.6717 85.1524 39.2166C85.4491 35.7615 84.3963 32.3258 82.2149 29.63C80.0334 26.9343 76.8928 25.1881 73.4517 24.7577L72.7333 30.5021C74.6893 30.7467 76.4746 31.7394 77.7146 33.2718C78.9547 34.8041 79.5531 36.7572 79.3845 38.7213C79.2158 40.6853 78.2931 42.5077 76.8099 43.8062C75.3267 45.1047 73.3983 45.7784 71.4292 45.6859L71.1576 51.4687Z" fill="white"/>
<path d="M17.4029 45.6825H39.1565C40.7584 45.6825 42.057 46.9811 42.057 48.583C42.057 50.1849 40.7584 51.4835 39.1565 51.4835H17.4029V45.6825Z" fill="white"/>
<path d="M71.7868 45.6825H66.711C65.1091 45.6825 63.8105 46.9811 63.8105 48.583C63.8105 50.1849 65.1091 51.4835 66.711 51.4835H71.7868V45.6825Z" fill="white"/>
<path d="M17.4029 17.7654H20.3034V19.5782C20.3034 21.1801 19.0048 22.4787 17.4029 22.4787V17.7654Z" fill="white"/>
<rect x="50.935" y="14.8283" width="4.81037" height="4.53798" rx="2.18787" transform="rotate(112.057 50.935 14.8283)" fill="white"/>
<path d="M70.7865 24.814L74.8655 25.157L74.4045 30.6397L72.3125 30.4638C71.2151 30.3715 70.4003 29.4071 70.4925 28.3096L70.7865 24.814Z" fill="white"/>
<path d="M52.9337 19.9408C52.9337 19.9408 53.974 29.65 58.0258 33.7019C62.0776 37.7537 71.7869 38.7939 71.7869 38.7939C71.7869 38.7939 62.0776 39.8341 58.0258 43.886C53.974 47.9378 52.9337 57.647 52.9337 57.647C52.9337 57.647 51.8935 47.9378 47.8417 43.886C43.7899 39.8341 34.0806 38.7939 34.0806 38.7939C34.0806 38.7939 43.7899 37.7537 47.8417 33.7019C51.8935 29.65 52.9337 19.9408 52.9337 19.9408Z" fill="white"/>
<path d="M28.0984 18.8531C28.0984 18.8531 28.5285 22.8675 30.2038 24.5428C31.879 26.218 35.8934 26.6481 35.8934 26.6481C35.8934 26.6481 31.879 27.0782 30.2038 28.7535C28.5285 30.4288 28.0984 34.4432 28.0984 34.4432C28.0984 34.4432 27.6683 30.4288 25.993 28.7535C24.3177 27.0782 20.3033 26.6481 20.3033 26.6481C20.3033 26.6481 24.3177 26.218 25.993 24.5428C27.6683 22.8675 28.0984 18.8531 28.0984 18.8531Z" fill="white"/>
<path d="M109.363 26.3515C109.247 25.8786 109.064 25.4637 108.814 25.1068C108.565 24.741 108.252 24.4331 107.877 24.1833C107.512 23.9245 107.083 23.7327 106.593 23.6078C106.111 23.4739 105.58 23.407 105 23.407C103.751 23.407 102.685 23.7059 101.801 24.3037C100.927 24.9016 100.258 25.7626 99.7936 26.8868C99.3385 28.0111 99.111 29.3673 99.111 30.9556C99.111 32.5616 99.3296 33.9357 99.7668 35.0778C100.204 36.2199 100.855 37.0943 101.721 37.7011C102.586 38.3078 103.662 38.6112 104.946 38.6112C106.08 38.6112 107.021 38.4461 107.77 38.116C108.529 37.7858 109.095 37.3174 109.47 36.7106C109.845 36.1039 110.032 35.3901 110.032 34.5692L111.317 34.7031H105.053V29.403H117.206V33.2041C117.206 35.7024 116.675 37.8394 115.613 39.615C114.561 41.3816 113.106 42.7379 111.25 43.6837C109.403 44.6205 107.284 45.089 104.893 45.089C102.225 45.089 99.8828 44.5224 97.8663 43.3892C95.8498 42.2561 94.275 40.6411 93.1418 38.5442C92.0175 36.4474 91.4554 33.9536 91.4554 31.0626C91.4554 28.7963 91.7989 26.7887 92.486 25.0399C93.1819 23.291 94.1456 21.8143 95.3769 20.6098C96.6082 19.3963 98.0314 18.4817 99.6464 17.8661C101.261 17.2415 102.992 16.9292 104.839 16.9292C106.463 16.9292 107.971 17.1612 109.363 17.6252C110.764 18.0802 112 18.7316 113.07 19.5792C114.15 20.4179 115.02 21.4128 115.68 22.5638C116.341 23.7149 116.742 24.9774 116.885 26.3515H109.363ZM127.417 17.304V44.7142H120.029V17.304H127.417ZM130.428 44.7142V24.1565H137.815V44.7142H130.428ZM134.121 22.0151C133.122 22.0151 132.266 21.685 131.552 21.0247C130.838 20.3644 130.481 19.5703 130.481 18.6423C130.481 17.7144 130.838 16.9203 131.552 16.26C132.266 15.5997 133.122 15.2696 134.121 15.2696C135.13 15.2696 135.986 15.5997 136.691 16.26C137.405 16.9203 137.762 17.7144 137.762 18.6423C137.762 19.5703 137.405 20.3644 136.691 21.0247C135.986 21.685 135.13 22.0151 134.121 22.0151ZM153.086 24.1565V29.5101H139.541V24.1565H153.086ZM142.164 19.2312H149.552V38.1026C149.552 38.3881 149.601 38.629 149.699 38.8253C149.798 39.0127 149.949 39.1554 150.154 39.2536C150.36 39.3428 150.623 39.3874 150.944 39.3874C151.167 39.3874 151.426 39.3607 151.72 39.3071C152.024 39.2536 152.247 39.209 152.39 39.1733L153.46 44.3663C153.13 44.4644 152.657 44.5849 152.042 44.7276C151.435 44.8704 150.712 44.9641 149.873 45.0087C148.178 45.0979 146.755 44.9239 145.604 44.4867C144.453 44.0406 143.587 43.3402 143.007 42.3854C142.428 41.4307 142.146 40.2351 142.164 38.7985V19.2312ZM167.606 24.1565V29.5101H154.062V24.1565H167.606ZM156.685 19.2312H164.073V38.1026C164.073 38.3881 164.122 38.629 164.22 38.8253C164.318 39.0127 164.47 39.1554 164.675 39.2536C164.88 39.3428 165.144 39.3874 165.465 39.3874C165.688 39.3874 165.947 39.3607 166.241 39.3071C166.544 39.2536 166.767 39.209 166.91 39.1733L167.981 44.3663C167.651 44.4644 167.178 44.5849 166.562 44.7276C165.956 44.8704 165.233 44.9641 164.394 45.0087C162.699 45.0979 161.276 44.9239 160.125 44.4867C158.974 44.0406 158.108 43.3402 157.528 42.3854C156.948 41.4307 156.667 40.2351 156.685 38.7985V19.2312ZM179.497 45.089C177.302 45.089 175.41 44.6696 173.822 43.8309C172.243 42.9832 171.025 41.7698 170.168 40.1905C169.321 38.6022 168.897 36.7017 168.897 34.4889C168.897 32.3653 169.325 30.5094 170.182 28.9212C171.038 27.333 172.247 26.0972 173.809 25.2139C175.37 24.3305 177.213 23.8888 179.336 23.8888C180.889 23.8888 182.294 24.1298 183.552 24.6116C184.81 25.0934 185.885 25.7938 186.778 26.7129C187.67 27.623 188.357 28.7294 188.839 30.0321C189.321 31.3348 189.562 32.8025 189.562 34.4354V36.1485H171.199V32.0798H182.763C182.754 31.4909 182.602 30.9734 182.308 30.5273C182.022 30.0722 181.634 29.7198 181.143 29.4699C180.661 29.2112 180.113 29.0818 179.497 29.0818C178.899 29.0818 178.35 29.2112 177.851 29.4699C177.351 29.7198 176.949 30.0678 176.646 30.5139C176.352 30.96 176.196 31.482 176.178 32.0798V36.4697C176.178 37.13 176.316 37.7189 176.593 38.2364C176.869 38.7539 177.266 39.1599 177.784 39.4544C178.301 39.7488 178.926 39.896 179.657 39.896C180.166 39.896 180.63 39.8246 181.049 39.6819C181.478 39.5391 181.844 39.3339 182.147 39.0662C182.45 38.7896 182.673 38.4595 182.816 38.0758H189.562C189.33 39.5034 188.781 40.7437 187.915 41.7965C187.05 42.8405 185.903 43.6524 184.476 44.2324C183.057 44.8035 181.397 45.089 179.497 45.089ZM191.823 44.7142V24.1565H198.996V28.0646H199.21C199.585 26.6192 200.179 25.5618 200.991 24.8926C201.811 24.2234 202.771 23.8888 203.868 23.8888C204.189 23.8888 204.506 23.9156 204.818 23.9692C205.14 24.0138 205.447 24.0807 205.742 24.1699V30.4737C205.376 30.3488 204.925 30.2551 204.39 30.1927C203.855 30.1302 203.395 30.099 203.012 30.099C202.289 30.099 201.637 30.2641 201.057 30.5942C200.486 30.9154 200.036 31.3705 199.706 31.9594C199.376 32.5393 199.21 33.2219 199.21 34.0071V44.7142H191.823ZM232.894 27.5828H225.345C225.291 26.9582 225.149 26.3916 224.917 25.8831C224.694 25.3745 224.381 24.9373 223.98 24.5714C223.587 24.1967 223.11 23.9112 222.548 23.7149C221.986 23.5096 221.348 23.407 220.634 23.407C219.385 23.407 218.327 23.7104 217.462 24.3171C216.605 24.9239 215.954 25.7938 215.508 26.927C215.071 28.0602 214.852 29.4209 214.852 31.0091C214.852 32.6865 215.075 34.0919 215.521 35.225C215.976 36.3493 216.632 37.1969 217.489 37.768C218.345 38.3301 219.376 38.6112 220.58 38.6112C221.267 38.6112 221.883 38.5264 222.427 38.3569C222.972 38.1784 223.444 37.9241 223.846 37.594C224.248 37.2638 224.573 36.8668 224.823 36.4028C225.082 35.9299 225.256 35.399 225.345 34.8101L232.894 34.8637C232.804 36.0236 232.479 37.2059 231.916 38.4104C231.354 39.606 230.556 40.7124 229.521 41.7296C228.495 42.7379 227.223 43.5498 225.706 44.1655C224.19 44.7812 222.427 45.089 220.42 45.089C217.904 45.089 215.646 44.5492 213.647 43.4695C211.658 42.3899 210.083 40.8017 208.923 38.7049C207.772 36.608 207.196 34.0428 207.196 31.0091C207.196 27.9576 207.785 25.3878 208.963 23.3C210.141 21.2031 211.729 19.6194 213.728 18.5487C215.726 17.469 217.957 16.9292 220.42 16.9292C222.151 16.9292 223.743 17.1657 225.198 17.6386C226.652 18.1115 227.928 18.803 229.026 19.7131C230.123 20.6142 231.006 21.7251 231.676 23.0457C232.345 24.3662 232.751 25.8786 232.894 27.5828ZM243.011 17.304V44.7142H235.623V17.304H243.011ZM255.925 45.089C253.695 45.089 251.785 44.6473 250.197 43.764C248.609 42.8717 247.391 41.6315 246.543 40.0432C245.696 38.4461 245.272 36.5947 245.272 34.4889C245.272 32.3832 245.696 30.5362 246.543 28.948C247.391 27.3508 248.609 26.1106 250.197 25.2272C251.785 24.335 253.695 23.8888 255.925 23.8888C258.156 23.8888 260.065 24.335 261.654 25.2272C263.242 26.1106 264.46 27.3508 265.308 28.948C266.155 30.5362 266.579 32.3832 266.579 34.4889C266.579 36.5947 266.155 38.4461 265.308 40.0432C264.46 41.6315 263.242 42.8717 261.654 43.764C260.065 44.6473 258.156 45.089 255.925 45.089ZM255.979 39.6283C256.603 39.6283 257.143 39.4187 257.598 38.9993C258.053 38.5799 258.406 37.9821 258.656 37.2059C258.906 36.4296 259.03 35.5061 259.03 34.4354C259.03 33.3557 258.906 32.4323 258.656 31.6649C258.406 30.8886 258.053 30.2908 257.598 29.8715C257.143 29.4521 256.603 29.2424 255.979 29.2424C255.319 29.2424 254.752 29.4521 254.279 29.8715C253.806 30.2908 253.445 30.8886 253.195 31.6649C252.945 32.4323 252.82 33.3557 252.82 34.4354C252.82 35.5061 252.945 36.4296 253.195 37.2059C253.445 37.9821 253.806 38.5799 254.279 38.9993C254.752 39.4187 255.319 39.6283 255.979 39.6283ZM282.154 35.7202V24.1565H289.542V44.7142H282.528V40.8061H282.314C281.868 42.1178 281.087 43.1439 279.972 43.8844C278.857 44.6161 277.532 44.9819 275.997 44.9819C274.56 44.9819 273.302 44.6518 272.223 43.9915C271.152 43.3312 270.318 42.4211 269.72 41.2612C269.131 40.1012 268.832 38.7718 268.823 37.2728V24.1565H276.211V35.7202C276.22 36.7374 276.479 37.536 276.987 38.116C277.505 38.6959 278.228 38.9859 279.156 38.9859C279.771 38.9859 280.302 38.8565 280.748 38.5978C281.203 38.3301 281.551 37.9554 281.792 37.4735C282.042 36.9828 282.163 36.3984 282.154 35.7202ZM299.987 44.9819C298.523 44.9819 297.176 44.5982 295.945 43.8309C294.722 43.0635 293.741 41.8991 293 40.3377C292.269 38.7762 291.903 36.8088 291.903 34.4354C291.903 31.9549 292.287 29.9384 293.054 28.3858C293.83 26.8333 294.829 25.6957 296.052 24.9729C297.283 24.2502 298.577 23.8888 299.933 23.8888C300.95 23.8888 301.843 24.0673 302.61 24.4242C303.377 24.7722 304.02 25.2406 304.537 25.8295C305.055 26.4095 305.447 27.0475 305.715 27.7434H305.822V17.304H313.21V44.7142H305.876V41.3415H305.715C305.43 42.0374 305.019 42.662 304.484 43.2152C303.957 43.7595 303.315 44.1923 302.556 44.5135C301.807 44.8258 300.95 44.9819 299.987 44.9819ZM302.717 39.3071C303.395 39.3071 303.975 39.1108 304.457 38.7182C304.948 38.3167 305.322 37.7546 305.581 37.0319C305.849 36.3002 305.983 35.4347 305.983 34.4354C305.983 33.4182 305.849 32.5482 305.581 31.8255C305.322 31.0939 304.948 30.5362 304.457 30.1525C303.975 29.7599 303.395 29.5636 302.717 29.5636C302.039 29.5636 301.459 29.7599 300.977 30.1525C300.504 30.5362 300.138 31.0939 299.88 31.8255C299.63 32.5482 299.505 33.4182 299.505 34.4354C299.505 35.4526 299.63 36.327 299.88 37.0586C300.138 37.7814 300.504 38.339 300.977 38.7316C301.459 39.1153 302.039 39.3071 302.717 39.3071Z" fill="white"/>
</svg>
