<svg width="324" height="75" viewBox="0 0 324 75" fill="none" xmlns="http://www.w3.org/2000/svg">
<path d="M8.32023 73.392C13.5814 72.5255 18.9641 71.659 24.2265 70.7928C23.9823 70.5446 23.8595 70.2975 23.7368 70.1733C21.7801 67.5741 20.9233 64.357 20.9233 60.5203V22.1539C22.2687 22.2781 23.7368 22.4009 25.2049 22.5251C26.306 24.1336 27.4071 25.8663 28.631 27.4763V23.3902C28.631 15.7169 24.2265 9.03412 18.9654 8.29057C17.62 8.16773 16.2734 7.91946 15.0495 7.7966C14.928 7.67247 14.6825 7.67247 14.561 7.67247C12.1529 7.31102 9.74606 6.94031 7.34062 6.56041C4.64992 6.18799 2.32495 4.33239 0.489796 0.866867C0.367031 0.618591 0.122766 0.24747 0 0.000488281V4.7035C0 12.872 3.79308 20.0501 8.68724 21.1647V21.2876H9.66558C10.2781 21.4117 10.8894 21.4117 11.6235 21.5345V61.5108C11.6235 65.5946 10.6452 69.3082 8.81001 72.5255C8.56449 72.8965 8.44299 73.1435 8.32023 73.392ZM199.197 51.4866C201.032 51.4866 202.867 51.6096 204.581 51.6096V44.8027C204.458 41.9553 205.436 39.4803 207.271 37.3763C209.229 35.3965 211.554 34.2832 214.246 34.2832H217.061C216.938 34.406 216.815 34.6545 216.571 34.7773C214.736 36.881 213.756 39.3574 213.756 42.2035V62.1288C205.803 61.7578 197.85 61.5108 190.02 61.2626V24.6288C190.02 21.907 189.041 19.4307 187.083 17.5751C186.986 17.3534 186.812 17.1768 186.594 17.0798C192.467 16.9557 198.217 16.8315 204.091 16.5845C209.475 16.4604 213.756 20.9164 213.756 26.7328V29.8273L213.268 29.3321C211.432 27.3523 209.108 26.3616 206.416 26.3616C203.968 26.4858 201.643 26.4858 199.197 26.4858V51.4866ZM84.9159 34.5288H76.8399V25.2471C77.8182 25.2471 78.7977 25.3699 79.8989 25.3699C82.5909 25.4939 84.7932 26.6074 86.6282 28.8354L87.2396 29.4549V26.1134C87.2396 20.0488 82.8351 14.8505 77.574 14.4794C73.1277 14.1133 68.6821 13.7422 64.2368 13.366C64.3595 13.613 64.4823 13.7371 64.7265 13.9841C66.5618 16.4591 67.5413 19.3065 67.5413 22.5238V56.4354C67.5413 59.6538 66.5618 62.5001 64.7265 64.9751C64.4823 65.2233 64.3595 65.4703 64.2368 65.7185C68.6413 65.2233 73.0467 64.8523 77.574 64.481C82.8351 63.9858 87.2396 58.7876 87.2396 52.6001V49.3814C86.9952 49.5056 86.8724 49.7527 86.6282 49.8769C84.7932 52.1049 82.5909 53.3424 79.8989 53.4663C78.7977 53.4663 77.8182 53.5894 76.8399 53.5894V44.4314C79.5319 44.3074 82.2239 44.3074 84.9145 44.1832L84.9159 34.5288ZM29.9775 69.9263C30.9559 69.8023 31.9356 69.5553 32.9139 69.431C38.2977 68.6888 42.5806 62.3773 42.5806 55.1979V47.7729C44.2931 47.7729 46.1282 47.6487 47.9635 47.5247V54.8269C47.9635 61.7578 52.2462 66.956 57.6302 66.3366C58.6085 66.2138 59.5881 66.0898 60.5664 66.0898L59.9553 65.4703C58.12 63.3663 57.1405 60.5203 57.1405 57.1788V22.0311C57.1405 18.6884 58.1188 15.8423 59.9553 13.6143C60.1994 13.4902 60.3222 13.2432 60.5664 12.9962C59.5881 12.9962 58.6085 12.872 57.6302 12.7479C52.2462 12.2527 47.9635 17.4509 47.9635 24.5049V33.4156C46.1282 33.4156 44.2931 33.2928 42.5806 33.2928V24.2564C42.5806 17.0785 38.2977 10.7669 32.9139 10.1488C31.9356 10.0233 30.9559 9.90049 29.9775 9.77634C30.2219 10.0233 30.3447 10.2716 30.4675 10.5186C32.4239 13.366 33.4037 16.7074 33.4037 20.4199V59.1574C33.4037 62.8699 32.4239 66.2126 30.4675 69.0586C30.3447 69.3056 30.2219 69.6781 29.9775 69.9263ZM117.83 62.0049C117.584 61.7578 117.463 61.6336 117.217 61.5108C115.382 59.5299 114.404 57.0549 114.404 54.2086V53.3424C114.404 50.4949 115.382 48.0199 117.217 46.0402C118.074 45.0497 118.931 44.1832 119.786 43.317V51.6096C119.786 57.3031 124.069 61.7578 129.453 61.6336C130.432 61.5108 131.411 61.5108 132.389 61.5108C132.145 61.3866 132.022 61.1384 131.901 61.0156C129.943 59.0346 129.086 56.6836 129.086 53.8376V38.738H124.069C124.803 37.9957 125.416 37.2535 126.15 36.51C128.108 34.5303 129.086 32.0553 129.086 29.3332V24.6288C129.086 21.7828 129.943 19.4307 131.901 17.4509C132.022 17.3268 132.145 17.0798 132.389 16.9557C131.411 16.9557 130.432 16.9557 129.453 16.8315C124.069 16.7087 119.786 21.1634 119.786 26.8571V27.4763C119.786 30.3211 118.808 32.7975 116.973 34.7773L114.404 37.3763V26.8571C114.404 21.0406 110.121 16.2134 104.737 15.9652C103.758 15.9652 102.779 15.9652 101.801 15.8423L102.412 16.4604C104.24 18.5299 105.244 21.2233 105.227 24.0108V54.5799C105.243 57.3671 104.239 60.0598 102.412 62.1288L101.801 62.7483C107.185 62.5001 112.444 62.2531 117.83 62.0049ZM136.061 61.3866C141.322 61.2626 146.705 61.2626 151.967 61.1398C151.845 61.0156 151.599 60.8913 151.478 60.6446C149.642 58.7876 148.663 56.3126 148.663 53.5894V24.7531C148.663 22.0298 149.642 19.6789 151.478 17.6979C151.599 17.5751 151.845 17.4509 151.967 17.2039C146.705 17.2039 141.322 17.0798 136.061 16.9557C136.183 17.2039 136.428 17.3268 136.55 17.5751C138.507 19.5548 139.364 21.907 139.364 24.7519V53.7134C139.364 56.4354 138.507 58.9116 136.55 60.8913C136.428 61.1384 136.183 61.2626 136.061 61.3866ZM182.801 17.0798H181.455C178.763 17.0798 176.438 18.1932 174.603 20.0501C172.522 22.2781 170.443 24.5049 168.241 26.6086V17.2039H155.638C155.882 17.4509 156.005 17.5751 156.249 17.6979C158.084 19.6789 159.064 22.0298 159.064 24.8773V53.5894C159.064 56.3126 158.084 58.6634 156.249 60.6446C156.005 60.7674 155.882 61.0156 155.638 61.1398H158.574C163.958 61.1398 168.241 56.6836 168.241 51.1144V41.9553C168.241 39.2332 169.219 36.881 171.054 34.9013L173.624 32.3023V51.2384C173.624 56.6824 177.906 61.2626 183.29 61.2626C184.269 61.3866 185.248 61.3866 186.227 61.3866C185.982 61.2626 185.86 61.0156 185.737 60.8913C183.779 58.7876 182.801 56.4354 182.801 53.7134V17.0798ZM217.305 62.5001C223.056 62.7483 228.807 63.1195 234.557 63.4906C237.248 63.7376 239.45 62.8711 241.408 60.7674C241.408 60.6446 241.533 60.6446 241.655 60.5203C243.491 58.4163 244.467 55.8174 244.467 52.7229V26.1148C244.467 23.0203 243.491 20.4212 241.655 18.3173L241.408 18.0703C239.45 15.9652 237.248 15.0988 234.557 15.2229C228.807 15.594 223.056 15.8423 217.305 16.0893L217.795 16.5845C219.752 18.5643 220.609 21.0406 220.609 24.0108V54.5799C220.609 57.5501 219.752 60.0251 217.795 62.0049C217.672 62.1288 217.428 62.2531 217.305 62.5001ZM229.908 25.8663C231.621 25.7435 233.456 25.7435 235.17 25.6196V53.0928C233.456 52.9699 231.621 52.9699 229.908 52.8457V25.8663ZM261.475 65.8413C262.945 65.9656 264.412 66.0898 265.882 66.3366C271.263 66.956 275.548 61.7578 275.548 54.8281V24.5049C275.548 17.5738 271.263 12.2527 265.882 12.7479C264.412 12.9962 262.945 13.119 261.475 13.2432C256.091 13.6143 251.687 19.1837 251.687 25.6181V53.3424C251.687 59.6538 256.091 65.3475 261.475 65.8413ZM260.987 24.6303C262.701 24.6303 264.534 24.506 266.37 24.382V54.7038C264.534 54.5799 262.701 54.4556 260.987 54.3314V24.6303ZM309.317 72.2773C309.195 72.0303 309.073 71.7821 308.828 71.535C306.992 68.3178 306.013 64.7281 306.013 60.7674V44.0604C306.013 40.0997 306.992 36.634 308.828 33.788C309.685 32.4263 310.542 31.1888 311.397 29.8273V57.7971C311.397 65.9656 315.679 73.392 321.063 74.381C322.042 74.6295 323.021 74.7523 324 75.0005C323.756 74.6295 323.634 74.381 323.39 74.01C321.551 70.6685 320.575 66.8332 320.575 62.5013V5.93971C320.084 6.06384 319.595 6.06384 319.229 6.1867C316.536 6.5591 314.212 8.41471 312.376 11.6332C310.296 15.0988 308.093 18.4402 306.013 21.7815V8.16902C305.555 8.17973 305.1 8.26305 304.668 8.416C301.975 8.66428 299.651 10.397 297.815 13.3673C295.737 16.5845 293.532 19.8018 291.452 22.8975V10.0233C287.294 10.5186 283.009 11.0138 278.849 11.5091C278.973 11.7561 279.218 11.8802 279.34 12.1272C281.298 14.4794 282.155 17.4496 282.155 21.0393V58.4152C282.155 62.0035 281.298 64.9737 279.34 67.2019C279.218 67.4501 278.973 67.6971 278.849 67.8211L281.788 68.1924C287.05 68.9346 291.452 63.4894 291.452 56.063V43.5638C291.452 39.8501 292.431 36.6328 294.267 34.0336C295.124 32.7961 295.981 31.5586 296.714 30.3211V56.4354C296.714 64.1086 301.118 70.9144 306.502 71.7806C307.483 72.0288 308.46 72.1545 309.317 72.2773Z" fill="white"/>
</svg>
