<svg width="86" height="58" viewBox="0 0 86 58" fill="none" xmlns="http://www.w3.org/2000/svg">
<path d="M17.4029 16.6776C12.7873 16.6776 8.36086 18.5111 5.09719 21.7748C1.83351 25.0385 4.03503e-07 29.465 0 34.0805C-4.03502e-07 38.696 1.83351 43.1225 5.09718 46.3862C8.36086 49.6499 12.7873 51.4834 17.4029 51.4834V45.6836C14.3255 45.6836 11.3742 44.4612 9.19821 42.2852C7.0222 40.1091 5.79973 37.1578 5.79973 34.0805C5.79973 31.0031 7.0222 28.0518 9.19822 25.8758C11.3742 23.6998 14.3255 22.4773 17.4029 22.4773V16.6776Z" fill="black"/>
<path d="M51.0059 16.0894C50.487 11.5041 48.239 7.28925 44.72 4.30405C41.201 1.31885 36.6761 -0.211991 32.0675 0.0235741C27.459 0.259139 23.1137 2.24337 19.9174 5.57182C16.7212 8.90026 14.9146 13.3223 14.8659 17.9367L20.2973 17.994C20.3314 14.7622 21.5967 11.6652 23.8353 9.33401C26.0738 7.00287 29.1171 5.61317 32.3448 5.44819C35.5725 5.28321 38.7416 6.35536 41.2062 8.4461C43.6708 10.5368 45.2453 13.4888 45.6087 16.7002L51.0059 16.0894Z" fill="black"/>
<path d="M75.7393 25.1962C75.9798 21.5515 75.0038 17.9301 72.9644 14.8998C70.9251 11.8695 67.9377 9.6017 64.4707 8.45208C61.0037 7.30246 57.2532 7.33601 53.8073 8.54746C50.3614 9.75892 47.415 12.0798 45.4302 15.1461L49.6051 17.8485C50.9915 15.7066 53.0497 14.0854 55.4567 13.2392C57.8638 12.3929 60.4836 12.3695 62.9054 13.1725C65.3272 13.9756 67.414 15.5597 68.8386 17.6764C70.2631 19.7932 70.9449 22.3229 70.7769 24.8688L75.7393 25.1962Z" fill="black"/>
<path d="M71.1576 51.4687C74.6216 51.6313 78.014 50.4462 80.6232 48.162C83.2324 45.8777 84.8556 42.6717 85.1524 39.2166C85.4491 35.7615 84.3963 32.3258 82.2149 29.63C80.0334 26.9343 76.8928 25.1881 73.4517 24.7577L72.7333 30.5021C74.6893 30.7467 76.4746 31.7394 77.7146 33.2718C78.9547 34.8041 79.5531 36.7572 79.3845 38.7213C79.2158 40.6853 78.2931 42.5077 76.8099 43.8062C75.3267 45.1047 73.3983 45.7784 71.4292 45.6859L71.1576 51.4687Z" fill="black"/>
<path d="M17.4029 45.6825H39.1565C40.7584 45.6825 42.057 46.9811 42.057 48.583C42.057 50.1849 40.7584 51.4835 39.1565 51.4835H17.4029V45.6825Z" fill="black"/>
<path d="M71.7868 45.6825H66.711C65.1091 45.6825 63.8105 46.9811 63.8105 48.583C63.8105 50.1849 65.1091 51.4835 66.711 51.4835H71.7868V45.6825Z" fill="black"/>
<path d="M17.4029 17.7654H20.3034V19.5782C20.3034 21.1801 19.0048 22.4787 17.4029 22.4787V17.7654Z" fill="black"/>
<rect x="50.935" y="14.8283" width="4.81037" height="4.53798" rx="2.18787" transform="rotate(112.057 50.935 14.8283)" fill="black"/>
<path d="M70.7865 24.814L74.8655 25.157L74.4045 30.6397L72.3125 30.4638C71.2151 30.3715 70.4003 29.4071 70.4925 28.3096L70.7865 24.814Z" fill="black"/>
<path d="M52.9337 19.9408C52.9337 19.9408 53.974 29.65 58.0258 33.7019C62.0776 37.7537 71.7869 38.7939 71.7869 38.7939C71.7869 38.7939 62.0776 39.8341 58.0258 43.886C53.974 47.9378 52.9337 57.647 52.9337 57.647C52.9337 57.647 51.8935 47.9378 47.8417 43.886C43.7899 39.8341 34.0806 38.7939 34.0806 38.7939C34.0806 38.7939 43.7899 37.7537 47.8417 33.7019C51.8935 29.65 52.9337 19.9408 52.9337 19.9408Z" fill="black"/>
<path d="M28.0984 18.8531C28.0984 18.8531 28.5285 22.8675 30.2038 24.5428C31.879 26.218 35.8934 26.6481 35.8934 26.6481C35.8934 26.6481 31.879 27.0782 30.2038 28.7535C28.5285 30.4288 28.0984 34.4432 28.0984 34.4432C28.0984 34.4432 27.6683 30.4288 25.993 28.7535C24.3177 27.0782 20.3033 26.6481 20.3033 26.6481C20.3033 26.6481 24.3177 26.218 25.993 24.5428C27.6683 22.8675 28.0984 18.8531 28.0984 18.8531Z" fill="black"/>
</svg>
